<svg xmlns="http://www.w3.org/2000/svg" xmlns:xlink="http://www.w3.org/1999/xlink" version="1.1" x="0px" y="0px" viewBox="0 0 100 125" style="enable-background:new 0 0 100 100;" xml:space="preserve"><g><path d="M83.3,43.8c0-0.3,0-0.6,0-0.8c-0.5-8.9-11.3-13.4-32-13.4c-30.4,0-35,9.9-35,15.7v12.2c0,5.8,5.1,8.8,15.3,8.8   c5.2,0,8.2,1.2,11.5,2.4c3.6,1.4,7.4,2.8,14.2,2.8c13,0,26-5,26-16.3L83.3,43.8C83.3,43.9,83.3,43.8,83.3,43.8z M51.3,31.5   c19.4,0,29.5,3.9,30,11.6c0.2,2.8-0.8,5.3-2.8,7.5c-3.9,4.2-12.1,6.8-21.3,6.8c-6.5,0-10-1.4-13.5-2.7c-3.3-1.3-6.6-2.6-12.2-2.6   c-13.3,0-13.3-5.1-13.3-6.8C18.3,32.9,41.3,31.5,51.3,31.5z M57.2,69.5c-6.5,0-10-1.4-13.5-2.7c-3.3-1.3-6.6-2.6-12.2-2.6   c-13.3,0-13.3-5.1-13.3-6.8v-7c2.4,2.4,6.8,3.6,13.3,3.6c5.2,0,8.2,1.2,11.5,2.4c3.6,1.4,7.4,2.8,14.2,2.8c9.9,0,18.4-2.8,22.7-7.4   c0.5-0.5,0.9-1.1,1.3-1.7l0,5C81.2,65.1,69.2,69.5,57.2,69.5z"/><path d="M30,49.9l1.5,0c6.2,0,10,1.3,13,2.4c0.4,0.2,0.8,0.3,1.3,0.5c2.8,1.1,6.1,2.4,11.4,2.4c8.1,0,16-2.6,19.6-6.4   c1.5-1.6,2.2-3.5,2.1-5.6c-0.1-1.6-0.7-4-5.2-6c-5.1-2.3-12.9-3.6-22.4-3.6c-22.5,0-29.1,4.9-30.6,9c-0.9,2.4-0.1,4.6,0.8,5.4   C23.5,49.9,25.4,49.9,30,49.9z M22.5,43.4c0.9-2.3,5.4-7.7,28.7-7.7c9.1,0,16.8,1.2,21.5,3.4c3.9,1.8,4,3.6,4.1,4.3   c0.1,1.6-0.4,2.9-1.5,4.1c-3.2,3.4-10.6,5.8-18.1,5.8c-4.9,0-7.8-1.2-10.6-2.3c-0.4-0.2-0.9-0.3-1.3-0.5c-3.2-1.2-7.2-2.6-13.8-2.6   l-1.5,0c-4.4,0-5.8,0-7.2-1.3C22.6,46.4,21.9,45.1,22.5,43.4z"/></g></svg>
