<?xml version="1.0" encoding="UTF-8"?>
<!-- Generator: Adobe Illustrator 15.0.0, SVG Export Plug-In . SVG Version: 6.00 Build 0)  -->
<!DOCTYPE svg PUBLIC "-//W3C//DTD SVG 1.1//EN" "http://www.w3.org/Graphics/SVG/1.1/DTD/svg11.dtd">
<svg version="1.1" id="Calque_1" xmlns="http://www.w3.org/2000/svg" xmlns:xlink="http://www.w3.org/1999/xlink" x="0px" y="0px" viewBox="0 0 320.431 40.544" enable-background="new 0 0 320.431 40.544" xml:space="preserve">
<g>
	<path fill="#030405" d="M0,0.672h17.584c4.48,0,8.008,1.232,10.248,3.472c1.736,1.737,2.632,3.864,2.632,6.497v0.111   c0,4.704-2.688,7.224-5.6,8.736c4.592,1.569,7.784,4.199,7.784,9.52v0.113c0,7-5.768,10.751-14.504,10.751H0V0.672z M16.184,17.192   c4.424,0,7.392-1.736,7.392-5.32V11.76c0-3.08-2.464-4.984-6.888-4.984H6.776v10.416H16.184z M18.2,33.767   c4.704,0,7.56-1.848,7.56-5.375v-0.111c0-3.305-2.632-5.266-8.064-5.266H6.776v10.752H18.2z"/>
	<path fill="#030405" d="M46.031,0.671h17.472c4.928,0,8.792,1.457,11.312,3.92c2.072,2.129,3.248,5.041,3.248,8.457v0.112   c0,6.439-3.864,10.304-9.352,11.872l10.584,14.84h-8.12l-9.632-13.664h-0.112h-8.512v13.664h-6.888V0.671z M62.999,20.104   c4.928,0,8.064-2.575,8.064-6.551V13.44c0-4.2-3.024-6.496-8.12-6.496H52.919v13.159H62.999z"/>
	<path fill="#030405" d="M106.007,0.392h6.384l17.248,39.48h-7.28l-3.976-9.465H99.847l-4.032,9.465h-7.056L106.007,0.392z    M115.863,24.304l-6.776-15.68l-6.72,15.68H115.863z"/>
	<path fill="#030405" d="M137.816,20.385v-0.113c0-10.975,8.4-20.272,20.216-20.272c6.833,0,11.032,1.905,15.065,5.321l-4.369,5.208   c-3.023-2.577-5.992-4.201-10.977-4.201c-7.223,0-12.711,6.328-12.711,13.832v0.112c0,8.063,5.32,13.999,13.328,13.999   c3.696,0,7.057-1.176,9.465-2.967v-7.337h-10.025v-5.991h16.687v16.462c-3.863,3.305-9.408,6.105-16.351,6.105   C145.88,40.544,137.816,31.808,137.816,20.385"/>
	<path fill="#030405" d="M202.944,0.392h6.383l17.248,39.48h-7.279l-3.977-9.465h-18.535l-4.031,9.465h-7.058L202.944,0.392z    M212.8,24.304l-6.775-15.68l-6.721,15.68H212.8z"/>
	<path fill="#030405" d="M238.896,0.671h17.473c4.928,0,8.791,1.457,11.313,3.92c2.07,2.129,3.248,5.041,3.248,8.457v0.112   c0,6.439-3.865,10.304-9.354,11.872l10.584,14.84h-8.119l-9.633-13.664h-0.111h-8.512v13.664h-6.889V0.671z M255.864,20.104   c4.928,0,8.064-2.575,8.064-6.551V13.44c0-4.2-3.025-6.496-8.121-6.496h-10.023v13.159H255.864z"/>
	<path fill="#030405" d="M284.983,0.672h14.615c12.32,0,20.832,8.457,20.832,19.488v0.111c0,11.033-8.512,19.602-20.832,19.602   h-14.615V0.672z M299.599,33.599c8.232,0,13.607-5.543,13.607-13.214v-0.114c0-7.672-5.375-13.327-13.607-13.327h-7.729v26.655   H299.599z"/>
</g>
</svg>