<svg xmlns="http://www.w3.org/2000/svg" data-name="Kitchen Objects" viewBox="0 0 60 75" x="0px" y="0px"><title>Kitchen Objects - 085 - Grill Tray</title><path d="M47,44h1a1.00292,1.00292,0,0,0,1-1V41H47Zm0-5h2V35H47Zm0-6h2V28H47Zm0-7h2V22H47Zm1-9H47v3h2V18A1.00292,1.00292,0,0,0,48,17ZM43,44h2V41H43Zm0-5h2V35H43Zm0-6h2V28H43Zm0-7h2V22H43Zm0-6h2V17H43ZM39,44h2V41H39Zm0-5h2V35H39Zm0-6h2V28H39Zm0-7h2V22H39Zm0-6h2V17H39ZM35,44h2V41H35Zm0-5h2V35H35Zm0-6h2V28H35Zm0-7h2V22H35Zm0-6h2V17H35ZM31,44h2V41H31Zm0-5h2V35H31Zm0-6h2V28H31Zm0-7h2V22H31Zm0-6h2V17H31ZM27,44h2V41H27Zm0-5h2V35H27Zm0-6h2V28H27Zm0-7h2V22H27Zm0-6h2V17H27ZM23,44h2V41H23Zm0-5h2V35H23Zm0-6h2V28H23Zm0-7h2V22H23Zm0-6h2V17H23ZM19,44h2V41H19Zm0-5h2V35H19Zm0-6h2V28H19Zm0-7h2V22H19Zm0-6h2V17H19ZM15,44h2V41H15Zm0-5h2V35H15Zm0-6h2V28H15Zm0-7h2V22H15Zm0-6h2V17H15ZM11,43a1.00292,1.00292,0,0,0,1,1h1V41H11Zm0-4h2V35H11Zm0-6h2V28H11Zm0-7h2V22H11Zm0-8v2h2V17H12A1.00292,1.00292,0,0,0,11,18Zm46,0H55V16a5.00181,5.00181,0,0,0-5-5H10a5.00181,5.00181,0,0,0-5,5v2H3a3.00879,3.00879,0,0,0-3,3V40a3.00887,3.00887,0,0,0,3,3H5v2a5.00181,5.00181,0,0,0,5,5H50a5.00181,5.00181,0,0,0,5-5V43h2a3.00887,3.00887,0,0,0,3-3V21A3.00879,3.00879,0,0,0,57,18ZM5,41H3a1.00292,1.00292,0,0,1-1-1V21a1.00292,1.00292,0,0,1,1-1H5Zm46,2a3.00887,3.00887,0,0,1-3,3H12a3.00887,3.00887,0,0,1-3-3V18a3.00879,3.00879,0,0,1,3-3H48a3.00879,3.00879,0,0,1,3,3Zm7-3a1.00292,1.00292,0,0,1-1,1H55V20h2a1.00292,1.00292,0,0,1,1,1Z"/></svg>
