<?xml version="1.0" encoding="UTF-8" standalone="no"?>
<!DOCTYPE svg PUBLIC "-//W3C//DTD SVG 1.1//EN" "http://www.w3.org/Graphics/SVG/1.1/DTD/svg11.dtd">
<svg x="0" y="0" width="300" height="100" viewBox="300 250 500 309" version="1.1" xmlns="http://www.w3.org/2000/svg" xmlns:xlink="http://www.w3.org/1999/xlink">
    <defs>
        <style type="text/css">
            <![CDATA[
                .g1_1{
                    fill: #231F20;
                }
            ]]>
        </style>
    </defs>
    <path d="M307.7,398.4c11.9,-2.1,20.8,-12.4,20.8,-24.8c0,-13.8,-11.3,-25.1,-25.1,-25c-6.7,0,-12.8,2.6,-17.3,6.9c0,0,-0.1,0,-0.1,0l-42.8,43L285,440.2c4.6,5,11.2,8.1,18.5,8.1c13.9,0,25.1,-11.3,25.1,-25.2c0,-12.4,-9,-22.7,-20.9,-24.7m-48,-51.8C246.1,332.2,226.8,323.2,205.4,323.2c-41.1,0,-74.4,33.3,-74.4,74.5c0,41.1,33.3,74.5,74.4,74.5c21,0,39.8,-8.7,53.4,-22.6l-51.1,-51Zm727.6,79.8l0,-3l2,0c0.2,0,0.5,0,0.8,0.1c0.3,0,0.5,0.1,0.8,0.2c0.2,0.1,0.4,0.2,0.5,0.4c0.2,0.2,0.2,0.4,0.2,0.7c0,0.7,-0.2,1.2,-0.6,1.4c-0.4,0.2,-1,0.2,-1.6,0.2Zm4.8,1.5c0.4,-0.1,0.7,-0.3,1,-0.6c0.2,-0.2,0.4,-0.5,0.6,-0.9c0.2,-0.4,0.2,-0.8,0.2,-1.4c0,-1.2,-0.4,-2.1,-1.1,-2.6c-0.8,-0.5,-1.9,-0.8,-3.4,-0.8l-4.4,0l0,11.6l2.3,0l0,-5l1.5,0l2.8,5l2.4,0l-3.1,-5.1c0.4,0,0.8,-0.1,1.2,-0.2m4.2,2.8c-0.4,1,-0.9,1.8,-1.6,2.6c-0.7,0.7,-1.6,1.3,-2.5,1.7c-1,0.4,-2,0.6,-3.1,0.6c-1,0,-2.1,-0.2,-3,-0.6c-1,-0.4,-1.8,-1,-2.5,-1.7c-0.7,-0.8,-1.2,-1.6,-1.7,-2.6c-0.4,-1,-0.6,-2.1,-0.6,-3.3c0,-1.2,0.2,-2.3,0.6,-3.2c0.5,-1,1,-1.9,1.7,-2.6c0.7,-0.7,1.5,-1.3,2.5,-1.7c0.9,-0.4,2,-0.6,3,-0.6c1.1,0,2.1,0.2,3.1,0.6c0.9,0.4,1.8,1,2.5,1.7c0.7,0.7,1.2,1.6,1.6,2.6c0.5,0.9,0.7,2,0.7,3.2c0,1.2,-0.2,2.3,-0.7,3.3m2.6,-7.6c-0.6,-1.2,-1.4,-2.3,-2.3,-3.2c-1,-0.9,-2.1,-1.6,-3.4,-2.1c-1.3,-0.5,-2.6,-0.7,-4.1,-0.7c-1.4,0,-2.7,0.2,-4,0.7c-1.3,0.5,-2.4,1.2,-3.4,2.1c-1,0.9,-1.7,2,-2.3,3.2c-0.6,1.3,-0.9,2.7,-0.9,4.3c0,1.6,0.3,3,0.9,4.3c0.6,1.3,1.3,2.4,2.3,3.3c1,0.9,2.1,1.6,3.4,2.1c1.3,0.4,2.6,0.7,4,0.7c1.5,0,2.8,-0.3,4.1,-0.7c1.3,-0.5,2.4,-1.2,3.4,-2.1c0.9,-0.9,1.7,-2,2.3,-3.3c0.6,-1.3,0.9,-2.7,0.9,-4.3c0,-1.6,-0.3,-3,-0.9,-4.3M715.7,474l-18.6,0l0,-20.5l18.6,0c7,0,12.6,2.6,12.6,10.5c0,7.4,-5.2,10,-12.6,10m-18,-52.7l18.1,0c4.9,0,9.5,2.1,9.5,8.6c0,6.4,-5.5,8.6,-9.5,8.6l-18.1,0Zm38.5,22.4c7,-3.5,11.7,-10,11.7,-18C747.9,407,731,403,715.6,403.3l-41.8,0l0,89.4l42.9,0c19.2,0,34.9,-6.5,34.9,-27.8c0,-10.1,-5.9,-18.4,-15.4,-21.2M476.1,481.3c-4.8,0,-8.9,-2.2,-8.9,-7.4c0,-5.1,4,-7.1,8.7,-8.2c4.7,-1.3,10.2,-1.7,13.2,-3.5c0.5,13.3,-2.9,19.1,-13,19.1m33.4,-33.7c0,-18.4,-14.8,-21.8,-30.2,-21.8c-7.4,0,-14.8,1.3,-20.6,4.5c-5.7,3.4,-9.7,8.9,-10.1,17.4l19.9,0c0.9,-5.5,4.7,-8.1,10.6,-8.1c4.3,0,10.2,1.8,10.2,6.7c0,4,-2,5.3,-5.6,6c-14.7,3,-37.7,1.4,-37.7,22.5c0,13.3,9.7,19.6,22.1,19.6c7.7,0,15.8,-2.3,21.3,-8c0.3,2.1,0.5,4.1,1.3,6.1l21.3,0c-2.5,-5.1,-2.5,-11.1,-2.5,-16.6Zm51.4,-21.8c-7.8,0,-16.5,4.2,-20.4,10.8l-0.2,0l0,-8.9l-20.6,0l0,64.8l21.2,0l0,-35.3c0,-7.1,3.5,-13.9,11.5,-13.9c11.6,0,10.6,9,10.6,17.9l0,31.3l21.2,0l0,-41.6c0,-9.3,-1.7,-25.1,-23.3,-25.1M403.6,474l-18.7,0l0,-20.5l18.7,0c7,0,12.5,2.6,12.5,10.5c0,7.4,-5.1,10,-12.5,10M384.9,421.3l18.1,0c4.8,0,9.5,2.1,9.5,8.6c0,6.4,-5.5,8.6,-9.5,8.6l-18.1,0ZM424,443.7c7,-3.5,11.8,-10,11.8,-18C435.8,407,418.9,403,403.5,403.3l-41.9,0l0,89.4l43,0c19.1,0,34.8,-6.5,34.8,-27.8c0,-10.1,-5.9,-18.4,-15.4,-21.2m235.5,-16l-23.8,0l-20.1,20.8l0,-45.1l-21.2,0l0,89.1l21.2,0l0,-33.2l22,33.2l24.9,0L635.8,452.2Zm212,-1.9c-7.8,0,-16.5,4.2,-20.4,10.8l-0.2,0l0,-8.9l-20.6,0l0,64.8l21.2,0l0,-35.3c0,-7.1,3.5,-13.9,11.5,-13.9c11.6,0,10.6,9,10.6,17.9l0,31.3l21.2,0l0,-41.6c0,-9.3,-1.7,-25.1,-23.3,-25.1m97.1,1.9l-23.8,0l-20.1,20.8l0,-45.1l-21.3,0l0,89.1l21.3,0l0,-33.2l22,33.2l24.9,0L944.9,452.2ZM786.7,481.3c-4.8,0,-8.9,-2.2,-8.9,-7.4c0,-5.1,4,-7.1,8.8,-8.2c4.6,-1.3,10.1,-1.7,13.1,-3.5c0.5,13.3,-2.9,19.1,-13,19.1m33.4,-33.7c0,-18.4,-14.8,-21.8,-30.2,-21.8c-7.3,0,-14.8,1.3,-20.6,4.5c-5.7,3.4,-9.7,8.9,-10.1,17.4l19.9,0c1,-5.5,4.7,-8.1,10.6,-8.1c4.4,0,10.2,1.8,10.2,6.7c0,4,-2,5.3,-5.6,6c-14.7,3,-37.7,1.4,-37.7,22.5c0,13.3,9.7,19.6,22.1,19.6c7.7,0,15.9,-2.3,21.3,-8c0.3,2.1,0.5,4.1,1.3,6.1l21.3,0c-2.5,-5.1,-2.5,-11.1,-2.5,-16.6ZM732.3,304.1l-21.2,0l0,17.3l21.2,0l0,-17.3Zm0,24.4l-21.2,0l0,64.8l21.2,0l0,-64.8Zm-85.9,14.8l34.4,50l27.9,0L671.6,339.1l32.7,-35l-27.4,0l-30.5,32.5l0,-32.5l-23.2,0l0,89.2l23.2,0Zm188.8,38.1c-3,0,-5.9,-0.7,-7.9,-2.2c-2.1,-1.7,-3.5,-4,-3.5,-7.3l-20.2,0c0.6,18.1,16.3,23.2,31.7,23.2c14.6,0,31.1,-5.7,31.1,-23.1c0,-5.3,-3.4,-14.8,-16.5,-17.4c-9.8,-2.2,-24,-3.3,-24,-9.4c0,-4.5,5.6,-4.9,9.1,-4.9c2.6,0,5,0.5,6.8,1.7c1.7,1.1,2.7,2.8,2.7,5.6l19.6,0c-0.7,-16.9,-15.6,-21,-29.8,-21c-12.8,0,-29.6,4.3,-29.6,19.9c0,17.4,16.7,17.8,30.1,21.2c3.7,0.9,10.3,1.9,10.3,6.8c0,5.2,-5.8,6.9,-9.9,6.9m-66.6,0c-3,0,-5.8,-0.7,-7.8,-2.2c-2.1,-1.7,-3.5,-4,-3.5,-7.3l-20.2,0c0.6,18.1,16.3,23.2,31.7,23.2c14.6,0,31.1,-5.7,31.1,-23.1c0,-5.3,-3.4,-14.8,-16.5,-17.4c-9.8,-2.2,-24,-3.3,-24,-9.4c0,-4.5,5.6,-4.9,9.1,-4.9c2.6,0,5,0.5,6.8,1.7c1.7,1.1,2.7,2.8,2.7,5.6l19.6,0c-0.7,-16.9,-15.6,-21,-29.8,-21c-12.8,0,-29.6,4.3,-29.6,19.9c0,17.4,16.7,17.8,30.1,21.2c3.7,0.9,10.3,1.9,10.3,6.8c0,5.2,-5.8,6.9,-10,6.9M470.7,304.1l-21.2,0l0,17.3l21.2,0l0,-17.3Zm0,24.4l-21.2,0l0,64.8l21.2,0l0,-64.8Zm-85.9,14.8l34.3,50l28,0L410,339.1l32.7,-35l-27.4,0l-30.5,32.5l0,-32.5l-23.2,0l0,89.2l23.2,0Zm188.7,38.1c-2.9,0,-5.8,-0.7,-7.8,-2.2c-2.1,-1.7,-3.5,-4,-3.5,-7.3l-20.2,0c0.6,18.1,16.3,23.2,31.7,23.2c14.6,0,31.1,-5.7,31.1,-23.1c0,-5.3,-3.4,-14.8,-16.5,-17.4c-9.8,-2.2,-24,-3.3,-24,-9.4c0,-4.5,5.6,-4.9,9.1,-4.9c2.6,0,5,0.5,6.8,1.7c1.7,1.1,2.7,2.8,2.7,5.6l19.6,0c-0.7,-16.9,-15.6,-21,-29.8,-21c-12.8,0,-29.6,4.3,-29.6,19.9c0,17.4,16.7,17.8,30.1,21.2c3.7,0.9,10.3,1.9,10.3,6.8c0,5.2,-5.8,6.9,-10,6.9m-67.5,0c-3,0,-5.8,-0.7,-7.8,-2.2c-2.2,-1.7,-3.5,-4,-3.5,-7.3l-20.3,0c0.7,18.1,16.4,23.2,31.7,23.2c14.7,0,31.1,-5.7,31.1,-23.1c0,-5.3,-3.3,-14.8,-16.4,-17.4c-9.8,-2.2,-24,-3.3,-24,-9.4c0,-4.5,5.6,-4.9,9.1,-4.9c2.6,0,5,0.5,6.7,1.7c1.8,1.1,2.8,2.8,2.8,5.6l19.6,0c-0.8,-16.9,-15.6,-21,-29.8,-21c-12.8,0,-29.6,4.3,-29.6,19.9c0,17.4,16.7,17.8,30.1,21.2c3.7,0.9,10.3,1.9,10.3,6.8c0,5.2,-5.9,6.9,-10,6.9Z" class="g1_1" />
</svg>
