<svg xmlns="http://www.w3.org/2000/svg" xmlns:xlink="http://www.w3.org/1999/xlink" version="1.1" x="0px" y="0px" viewBox="0 0 100 125" style="enable-background:new 0 0 100 100;" xml:space="preserve"><g><path d="M83.2,43.4c0-0.3,0-0.6,0-0.8c-0.5-8.9-11.3-13.4-32-13.4c-30.4,0-35,9.9-35,15.7V57c0,5.8,5.1,8.8,15.3,8.8   c5.2,0,8.2,1.2,11.5,2.4c3.6,1.4,7.4,2.8,14.2,2.8c13,0,26-5,26-16.3L83.2,43.4C83.2,43.4,83.2,43.4,83.2,43.4z M51.2,31.1   c19.4,0,29.5,3.9,30,11.6c0.2,2.8-0.8,5.3-2.8,7.5c-3.9,4.2-12.1,6.8-21.3,6.8c-6.5,0-10-1.4-13.5-2.7c-3.3-1.3-6.6-2.6-12.2-2.6   c-13.3,0-13.3-5.1-13.3-6.8C18.2,32.5,41.3,31.1,51.2,31.1z M57.1,69.1c-6.5,0-10-1.4-13.5-2.7c-3.3-1.3-6.6-2.6-12.2-2.6   c-13.3,0-13.3-5.1-13.3-6.8v-7c2.4,2.4,6.8,3.6,13.3,3.6c5.2,0,8.2,1.2,11.5,2.4c3.6,1.4,7.4,2.8,14.2,2.8c9.9,0,18.4-2.8,22.7-7.4   c0.5-0.5,0.9-1.1,1.3-1.7l0,5C81.2,64.7,69.1,69.1,57.1,69.1z"/><path d="M30,49.5l1.5,0c6.2,0,10,1.3,13,2.4c0.4,0.2,0.8,0.3,1.3,0.5c2.9,1.1,6.1,2.4,11.4,2.4c8.1,0,16-2.6,19.6-6.4   c1.5-1.6,2.2-3.5,2.1-5.6c-0.1-1.6-0.7-4-5.2-6c-5.1-2.3-12.9-3.6-22.4-3.6c-22.5,0-29.1,4.9-30.6,9c-0.9,2.4-0.1,4.6,0.8,5.4   C23.5,49.5,25.4,49.5,30,49.5z M27.1,38.8l0.1,0.3l-1.9,3.2l-1-1.8C25.1,39.9,26,39.3,27.1,38.8z M32.2,37.1l1,1.6L31.3,42l-1.7-3   l0.9-1.5C31,37.4,31.6,37.2,32.2,37.1z M37.6,36l1.5,2.6l-1.8,3.1l-1.8-3.1l1.4-2.5C37.1,36.1,37.3,36.1,37.6,36z M61.4,35.8   l1.7,2.9L61.2,42l-1.9-3.3l1.7-2.9C61.2,35.8,61.3,35.8,61.4,35.8z M68.1,37c0,0,0,0.1,0,0.1l0.9,1.6L67.2,42l-1.8-3.3l1.2-2.1   C67.1,36.8,67.6,36.9,68.1,37z M71.5,49.7l-0.2-0.3l1.8-3.3l1,1.9C73.5,48.6,72.5,49.2,71.5,49.7z M66.6,51.6l-1.2-2.2l1.8-3.3   l1.8,3.3l-0.9,1.5c0,0.1,0,0.1-0.1,0.2C67.6,51.3,67.1,51.5,66.6,51.6z M61.2,52.6l-1.8-3.2l1.8-3.3l1.8,3.3l-1.7,3   c0,0.1,0,0.1-0.1,0.2C61.3,52.6,61.2,52.6,61.2,52.6z M48.4,51.3C48.4,51.3,48.4,51.3,48.4,51.3l-1.2-2.2l1.9-3.2l1.9,3.3l-1.4,2.5   C49.1,51.6,48.8,51.4,48.4,51.3z M41.7,48.8l1.5-2.7l1.7,3l-0.4,0.7C43.6,49.5,42.7,49.1,41.7,48.8z M32.4,44.1l1.9-3.4l1.8,3.1   l-2,3.4L32.4,44.1z M37.2,45.8l1.4,2.3c-0.8-0.1-1.6-0.3-2.5-0.4L37.2,45.8z M40.4,47.2l-2-3.4l1.8-3.1l1.9,3.4L40.4,47.2z    M55.2,52.6l-1.9-3.4l1.9-3.2l1.9,3.4L55.2,52.6C55.2,52.7,55.2,52.7,55.2,52.6z M56.3,44l1.9-3.2l1.9,3.4l-1.8,3.3L56.3,44z    M55.2,41.9l-1.8-3.3l1.9-3.2l1.8,3.2L55.2,41.9z M54,43.9l-1.9,3.2l-1.8-3.3l1.9-3.2L54,43.9z M49.1,41.9l-1.8-3.1l1.8-3.3   l1.8,3.2L49.1,41.9z M48,43.9l-1.9,3.2l-1.7-3l1.8-3.3L48,43.9z M52.1,51.2l0.7,1.3c-0.5-0.1-0.9-0.2-1.3-0.3L52.1,51.2z    M58.2,51.4l0.8,1.4c-0.5,0-1,0-1.6,0L58.2,51.4z M62.4,44.1l1.8-3.3l1.8,3.3l-1.8,3.3L62.4,44.1z M64.2,51.4l0.4,0.6   c-0.3,0.1-0.5,0.1-0.8,0.2L64.2,51.4z M70.2,47.4l-1.8-3.3l1.8-3.3l1.8,3.3L70.2,47.4z M64.2,36.7l-0.3-0.6c0.2,0,0.4,0.1,0.6,0.1   L64.2,36.7z M58.2,36.7l-0.7-1.2c0.5,0,0.9,0.1,1.4,0.1L58.2,36.7z M52.2,36.7l-0.8-1.4c0.5,0,1.1,0,1.6,0L52.2,36.7z M46.2,36.7   l-0.8-1.4c0.5,0,1,0,1.6-0.1L46.2,36.7z M43.2,35.5l1.8,3.3L43.2,42l-1.9-3.3L43.2,35.5C43.2,35.5,43.2,35.5,43.2,35.5z M40.2,36.7   l-0.5-0.9c0.4,0,0.7-0.1,1.1-0.1L40.2,36.7z M34.3,36.7L34.3,36.7c0-0.1,0-0.1,0.1-0.1L34.3,36.7z M28.4,41.1l1.7,3l-1.8,3.3   l-1.7-3.1L28.4,41.1z M26,47.4c-0.4,0-0.8-0.1-1.2-0.2l0.6-1L26,47.4z M30.5,47.5l0.8-1.3l0.8,1.4c-0.2,0-0.4,0-0.6,0L30.5,47.5z    M75.7,46.5l-1.4-2.4l1.7-3.1c0.6,0.9,0.7,1.6,0.7,1.9C76.9,44.3,76.5,45.4,75.7,46.5z M74.6,39.6L73.2,42l-1.8-3.3l0.3-0.6   c0.4,0.1,0.7,0.3,1.1,0.4C73.5,39,74.1,39.3,74.6,39.6z M22.4,43c0.1-0.3,0.3-0.6,0.5-1l1.3,2.3L23,46.4c-0.1-0.1-0.2-0.1-0.3-0.2   C22.5,46,21.8,44.6,22.4,43z"/></g></svg>
