<svg xmlns="http://www.w3.org/2000/svg" xmlns:xlink="http://www.w3.org/1999/xlink" version="1.1" x="0px" y="0px" viewBox="0 0 100 125" enable-background="new 0 0 100 100" xml:space="preserve"><g><path d="M10.314,49.043c-0.534,0-1.045-0.213-1.421-0.592c-0.375-0.379-0.584-0.893-0.579-1.427   c0.007-0.717,0.397-7.282,11.824-16.884c3.426-3.135,8.192-6.593,11.089-4.94c0.959,0.547,1.294,1.769,0.747,2.728   c-0.516,0.905-1.63,1.254-2.561,0.832c-1.032,0.057-4.138,2.104-6.639,4.388c-6.411,5.389-8.899,9.565-9.86,11.895l2.989-0.001h0   c1.104,0,2,0.895,2,2s-0.895,2-2,2L10.314,49.043L10.314,49.043z"/><path d="M32.336,88.377c-10.129,0.001-17.584-5.592-20.93-9.99C6.206,70.996,0.706,56.052,21.806,38.319   c1.724-1.448,3.509-2.949,5.39-4.385c-0.349-4.891,1.061-9.008,4.198-12.251c8.946-9.249,29.122-7.948,31.672-7.745   c1.575-0.306,5.284-3.096,7.931-5.607c0.63-0.598,1.574-0.72,2.335-0.306c0.393,0.214,3.847,2.194,4.261,5.745   c0.216,1.857-0.435,3.671-1.937,5.408c0.425,1.014,0.622,2.285,0.088,3.573c-0.461,1.113-1.344,2.014-2.682,2.717   c1.297,0.476,2.621,1.058,3.904,1.769c0.73-1.144,2.171-4.332,3.296-12.635c0.071-0.53,0.353-1.01,0.781-1.332   c0.435-0.326,4.352-3.138,7.97-1.543c2.453,1.081,3.906,3.786,4.319,8.039c0.053,0.543-0.118,1.084-0.475,1.498   c-0.028,0.037-4.682,6.015,0.174,20.288l0.198,0.571c0.091,0.26,0.127,0.537,0.106,0.812c-0.065,0.871-1.72,21.17-13.256,27.892   c-0.632,0.895-2.452,3.374-7.517,9.891c-0.032,0.041-0.065,0.08-0.1,0.118c-4.536,4.985-9.234,7.381-13.956,7.117   c-4.458-0.248-7.706-2.833-9.355-4.5C43.01,87.009,37.346,88.377,32.336,88.377z M30.347,36.563   c-2.05,1.526-4.019,3.181-5.968,4.818c-8.007,6.729-19.921,20.179-9.745,34.644c0.472,0.609,12.911,16.316,33.851,3.158   c0.891-0.559,2.065-0.333,2.683,0.52c0.025,0.033,3.018,4.021,7.597,4.257c3.425,0.189,7.033-1.762,10.69-5.761   c6.523-8.395,7.517-9.905,7.556-9.966c0.182-0.28,0.439-0.522,0.733-0.682c9.225-4.997,11.285-21.722,11.567-24.52l-0.065-0.19   c-4.688-13.78-1.398-21.107,0.023-23.397c-0.305-2.226-0.96-3.656-1.869-4.057c-0.923-0.407-2.362,0.141-3.302,0.667   c-1.86,12.882-4.79,15.622-6.944,15.622c-0.383,0-0.757-0.11-1.079-0.316c-5.511-3.533-12.845-4.001-12.918-4.005   c-1.064-0.062-1.893-0.949-1.883-2.015c0.01-1.066,0.854-1.937,1.919-1.98c8.013-0.323,8.825-2.066,8.856-2.14   c0.113-0.273-0.266-0.863-0.376-0.983c-0.363-0.394-0.553-0.916-0.527-1.45c0.025-0.534,0.264-1.036,0.662-1.393   c0.896-0.805,1.938-2.004,1.812-3.148c-0.078-0.709-0.586-1.373-1.113-1.875c-2.176,1.92-6.354,5.288-9.188,5.571   c-0.126,0.013-0.253,0.013-0.381,0.001c-0.206-0.018-20.652-1.772-28.673,6.526c-1.784,1.846-2.796,4.038-3.055,6.64   c4.16-2.655,8.825-4.712,14.294-5.177c1.093-0.086,2.068,0.722,2.162,1.823c0.094,1.101-0.723,2.068-1.823,2.162   c-5.881,0.501-10.751,3.154-15.228,6.449C30.532,36.438,30.442,36.504,30.347,36.563z"/><path d="M55.479,73.473c-0.533,0-1.045-0.213-1.421-0.593c-0.376-0.379-0.584-0.893-0.579-1.427   c0.007-0.717,0.397-7.282,11.823-16.884c3.542-3.242,8.438-6.765,11.307-4.804c2.65,1.81,1.37,6.295-0.231,10.446   c-0.398,1.03-1.557,1.54-2.587,1.146c-1.03-0.398-1.543-1.556-1.146-2.587c1.232-3.191,1.474-4.772,1.493-5.483   c-1.307,0.437-3.991,2.271-6.199,4.29c-6.411,5.39-8.899,9.566-9.86,11.896l6.933-0.002c0.001,0,0.001,0,0.001,0   c1.104,0,2,0.895,2,1.999s-0.895,2.001-1.999,2.001L55.479,73.473C55.479,73.473,55.479,73.473,55.479,73.473z"/></g></svg>
