<svg xmlns="http://www.w3.org/2000/svg" xmlns:xlink="http://www.w3.org/1999/xlink" version="1.1" x="0px" y="0px" viewBox="0 0 100 125" enable-background="new 0 0 100 100" xml:space="preserve"><path d="M37.673,30.195c0,0.586-0.475,1.062-1.062,1.062c-0.586,0-1.062-0.475-1.062-1.062c0-0.586,0.475-1.062,1.062-1.062  C37.198,29.133,37.673,29.609,37.673,30.195z M38.165,43.316c-2.551,1.795-5.291,3.94-7.058,5.947  c-3.487,3.962-7.643,6.202-11.3,6.202c-0.721,0-1.423-0.087-2.097-0.265c-1.55-0.41-2.802-1.291-3.649-2.522  c-0.468,0.049-0.929,0.075-1.381,0.075c-1.428,0-2.765-0.249-3.93-0.767c-2.275-1.011-3.591-2.926-3.707-5.39  C4.86,42.681,7.39,40.658,9.818,40.07c2.369-0.574,4.647,0.067,5.298,1.491c0.151,0.331,0.006,0.721-0.325,0.872  c-0.331,0.151-0.721,0.006-0.872-0.325c-0.326-0.714-1.963-1.201-3.791-0.759c-1.193,0.289-3.948,1.372-3.77,5.185  c0.116,2.488,1.656,3.684,2.927,4.249c1.077,0.479,2.492,0.717,4.102,0.627c-0.157-0.391-0.284-0.803-0.374-1.237  c-0.797-3.849,1.085-6.236,3.111-7.186c1.764-0.827,3.624-0.616,4.523,0.512c0.227,0.284,0.18,0.698-0.105,0.925  c-0.284,0.227-0.699,0.179-0.925-0.105c-0.501-0.629-1.763-0.69-2.935-0.14c-0.763,0.358-3.189,1.828-2.381,5.728  c0.101,0.489,0.255,0.941,0.454,1.354c2.54-0.412,5.429-1.607,8.202-3.883c5.729-4.703,10.372-5.428,12.507-5.469  c-9.186-5.247-13.147-12.348-13.147-12.348h11.719c-0.049,0.201-0.077,0.409-0.077,0.625c0,1.465,1.188,2.653,2.653,2.653  c1.465,0,2.653-1.188,2.653-2.653c0-0.216-0.029-0.424-0.077-0.625h12.739c-0.424-1.135-1.997-4.226-6.568-4.226H29.832  c-0.363,0-0.658-0.295-0.658-0.658c0-0.363,0.295-0.658,0.658-0.658h15.525c6.07,0,7.735,4.811,7.952,5.542h13.605  c0.379,1.77,2.249,11.885-3.11,17.371c-0.031,0.031-0.056,0.066-0.079,0.102C52.923,48.286,44.505,46.324,38.165,43.316z   M63.347,33.128c0,0.26,0.21,0.47,0.47,0.47h0.917c0.26,0,0.47-0.21,0.47-0.47s-0.21-0.47-0.47-0.47h-0.917  C63.557,32.658,63.347,32.868,63.347,33.128z M55.074,33.128c0,0.26,0.21,0.47,0.47,0.47h6.369c0.26,0,0.47-0.21,0.47-0.47  s-0.21-0.47-0.47-0.47h-6.369C55.284,32.658,55.074,32.868,55.074,33.128z M36.011,43.236c-1.483-0.053-6.217,0.231-12.219,5.159  c-2.53,2.077-5.452,3.466-8.248,4.048c0.64,0.708,1.484,1.215,2.502,1.485c2.825,0.748,7.479-0.314,12.073-5.534  C31.651,46.653,33.832,44.846,36.011,43.236z M70.219,57.122c0.007,0.359,0.3,0.645,0.658,0.645c0.004,0,0.009,0,0.013,0  c0.363-0.007,0.652-0.307,0.645-0.671c-0.03-1.53,2.927-3.799,5.121-5.133c-0.219-0.768-0.306-1.25-0.315-1.302  c-0.002-0.01-0.001-0.019-0.002-0.029c-0.188-0.038-0.375-0.078-0.561-0.121c-0.724-0.167-1.47-0.218-2.209-0.141  c-3.386,0.352-8.047,1.169-9.005,3.023c-0.163,0.315-0.079,0.714,0.224,0.898c0.109,0.066,0.227,0.097,0.343,0.097  c0.247,0,0.484-0.14,0.596-0.378c0.453-0.962,3.274-1.685,6.357-2.122c-2.925,1.085-6.118,2.633-6.581,4.334  c-0.091,0.334,0.059,0.701,0.381,0.827c0.082,0.032,0.164,0.047,0.243,0.047c0.301,0,0.572-0.207,0.641-0.513  c0.242-1.069,2.996-2.431,6.021-3.54C71.409,54.235,70.191,55.696,70.219,57.122z M80.762,75.525l8.893-9.763  c-5.273-1.631-8.464-5.031-10.29-7.851c-0.035-0.054-0.066-0.108-0.101-0.162c-0.365,0.9-1.135,3.046-1.424,5.778  C77.363,68.051,78.346,72.083,80.762,75.525z M79.481,75.981H63.137c0,0,3.676-10.874,13.314-11.602  C76.259,67.612,76.741,71.898,79.481,75.981z M74.58,68.114c-0.013-0.259-0.236-0.459-0.493-0.446  c-0.157,0.008-3.876,0.25-6.337,5.308c-0.114,0.233-0.016,0.515,0.217,0.628c0.066,0.032,0.136,0.048,0.205,0.048  c0.174,0,0.342-0.097,0.423-0.265c2.202-4.526,5.399-4.772,5.541-4.781C74.394,68.593,74.593,68.373,74.58,68.114z M86.908,50.165  c2.236-0.577,4.214-1.352,5.781-2.072v17.032c-5.232-0.843-9.331-3.494-12.191-7.888c-1.781-2.735-2.529-5.372-2.767-6.375  c0.875,0.113,1.771,0.172,2.686,0.172C82.489,51.033,84.66,50.745,86.908,50.165z M89.934,61.392c0,0.26,0.21,0.47,0.47,0.47  s0.47-0.21,0.47-0.47v-7.663c0-0.26-0.21-0.47-0.47-0.47s-0.47,0.21-0.47,0.47V61.392z M79.676,31.793L94.966,45.43  c-1.362,0.794-4.495,2.456-8.387,3.461c-6.477,1.672-12.048,0.861-16.582-2.407c0.571-0.276,1.159-0.599,1.751-0.981  C76.979,42.13,78.989,36.586,79.676,31.793z M81.402,37.776l7.98,7.221c0.09,0.082,0.203,0.122,0.315,0.122  c0.128,0,0.256-0.052,0.349-0.155c0.174-0.193,0.159-0.49-0.033-0.664l-7.98-7.221c-0.193-0.175-0.49-0.159-0.664,0.033  C81.195,37.305,81.21,37.602,81.402,37.776z M36.611,75.981h24.493l-20.248-6.897L36.611,75.981z M37.446,66.531l24.662,8.401  L48.106,60.655L37.446,66.531z M65.88,46.503c0.614-0.128,1.368-0.328,2.197-0.634c0.217-0.08,0.439-0.168,0.666-0.264  c0.751-0.318,1.546-0.722,2.345-1.242c4.438-2.888,6.955-7.788,7.489-14.571H68.306c0.224,1.156,0.578,3.423,0.557,6.1  C68.828,40.217,67.802,43.844,65.88,46.503z"/></svg>
