<svg xmlns="http://www.w3.org/2000/svg" xmlns:xlink="http://www.w3.org/1999/xlink" version="1.1" x="0px" y="0px" viewBox="0 0 100 125" style="enable-background:new 0 0 100 100;" xml:space="preserve"><g><path d="M82.8,42.9c0-0.3,0-0.5,0-0.8c-0.5-8.9-11.3-13.4-32-13.4c-30.4,0-35,9.9-35,15.7v12.2c0,5.8,5.1,8.8,15.3,8.8   c5.2,0,8.2,1.2,11.5,2.4c3.6,1.4,7.4,2.8,14.2,2.8c13,0,26-5,26-16.3L82.8,42.9C82.8,43,82.8,43,82.8,42.9z M50.8,30.7   c19.4,0,29.5,3.9,30,11.6c0.2,2.8-0.8,5.4-2.8,7.5c-3.9,4.2-12.1,6.8-21.3,6.8c-6.5,0-10-1.4-13.5-2.7c-3.3-1.3-6.6-2.6-12.2-2.6   c-13.3,0-13.3-5.1-13.3-6.8C17.8,32,40.9,30.7,50.8,30.7z M56.8,68.7c-6.5,0-10-1.4-13.5-2.7c-3.3-1.3-6.6-2.6-12.2-2.6   c-13.3,0-13.3-5.1-13.3-6.8v-7c2.4,2.4,6.8,3.6,13.3,3.6c5.2,0,8.2,1.2,11.5,2.4c3.6,1.4,7.4,2.8,14.2,2.8c9.9,0,18.4-2.8,22.7-7.4   c0.5-0.5,0.9-1.1,1.3-1.7l0,5C80.8,64.2,68.7,68.7,56.8,68.7z"/><path d="M29.6,49l1.5,0c6.2,0,10,1.3,13,2.4c0.4,0.2,0.8,0.3,1.3,0.5c2.8,1.1,6.1,2.4,11.4,2.4c8.1,0,16-2.6,19.6-6.4   c1.5-1.6,2.2-3.5,2.1-5.6c-0.1-1.6-0.7-4-5.2-6c-5.1-2.3-12.9-3.6-22.4-3.6c-22.5,0-29.1,4.9-30.6,9c-0.9,2.4-0.1,4.6,0.8,5.4   C23.1,49.1,25,49,29.6,49z M22.1,42.5c0.9-2.3,5.4-7.7,28.7-7.7c9.1,0,16.8,1.2,21.5,3.4c3.9,1.8,4,3.6,4.1,4.3   c0.1,1.6-0.4,2.9-1.5,4.1c-3.2,3.4-10.6,5.8-18.1,5.8c-4.9,0-7.8-1.2-10.6-2.3c-0.4-0.2-0.9-0.3-1.3-0.5c-3.2-1.2-7.2-2.6-13.8-2.6   l-1.5,0c-4.4,0-5.8,0-7.2-1.3C22.1,45.5,21.4,44.2,22.1,42.5z"/><path d="M26.9,45.8c0.1,0.1,0.3,0.1,0.5,0.1c0.4,0,0.7-0.2,0.9-0.5l2.5-4.9c0.3-0.5,0.1-1.1-0.4-1.3c-0.5-0.3-1.1-0.1-1.3,0.4   l-2.5,4.9C26.2,44.9,26.4,45.5,26.9,45.8z"/><path d="M37.7,45.9c0.1,0.1,0.3,0.1,0.4,0.1c0.4,0,0.7-0.2,0.9-0.6l3.1-7c0.2-0.5,0-1.1-0.5-1.3c-0.5-0.2-1.1,0-1.3,0.5l-3.1,7   C37,45.1,37.2,45.7,37.7,45.9z"/><path d="M46.8,48.6c0.1,0.1,0.3,0.1,0.4,0.1c0.4,0,0.7-0.2,0.9-0.6L53,38c0.2-0.5,0-1.1-0.5-1.3c-0.5-0.2-1.1,0-1.3,0.5l-4.8,10.1   C46.1,47.7,46.3,48.3,46.8,48.6z"/><path d="M57,50.2c0.1,0.1,0.3,0.1,0.4,0.1c0.4,0,0.7-0.2,0.9-0.6l5-10.9c0.2-0.5,0-1.1-0.5-1.3c-0.5-0.2-1.1,0-1.3,0.5l-5,10.9   C56.2,49.3,56.5,49.9,57,50.2z"/><path d="M68,48.9c0.1,0.1,0.3,0.1,0.4,0.1c0.4,0,0.7-0.2,0.9-0.6l3-6.6c0.2-0.5,0-1.1-0.5-1.3c-0.5-0.2-1.1,0-1.3,0.5l-3,6.6   C67.3,48.1,67.5,48.7,68,48.9z"/></g></svg>
