<?xml version="1.0" encoding="UTF-8" standalone="no"?>
<!DOCTYPE svg PUBLIC "-//W3C//DTD SVG 1.1//EN"
"http://www.w3.org/Graphics/SVG/1.1/DTD/svg11.dtd">


<!-- Page 1 -->
<svg x="0" y="0" width="595" height="320" viewBox="0 0 595 320" version="1.1" xmlns="http://www.w3.org/2000/svg" xmlns:xlink="http://www.w3.org/1999/xlink"
style="display: block;margin-left: auto;margin-right: auto;">
<defs>

<style type="text/css"><![CDATA[

.g1_1{
fill: #231F20;
}


]]></style>

</defs>
<path d="M285.3,115.4c0.8,0.9,1.8,1.6,2.9,2c1.2,0.5,2.4,0.7,3.7,0.7c0.9,0,1.8,-0.1,2.5,-0.4c0.7,-0.3,1.4,-0.6,2,-1c0.6,-0.4,1.1,-0.9,1.5,-1.5c0.4,-0.5,0.8,-1,1,-1.5l0.2,-0.3l-0.3,-0.1L296.9,112l-0.3,-0.1l-0.1,0.2c-0.3,0.4,-0.5,0.9,-0.9,1.2c-0.2,0.4,-0.6,0.7,-0.9,1c-0.4,0.3,-0.8,0.5,-1.3,0.7c-0.4,0.1,-0.9,0.2,-1.5,0.2c-0.8,0,-1.6,-0.2,-2.3,-0.5c-0.8,-0.4,-1.4,-0.9,-1.9,-1.6c-0.5,-0.7,-1,-1.6,-1.3,-2.6c-0.3,-1.1,-0.4,-2.3,-0.4,-3.6c0,-2.8,0.5,-4.9,1.5,-6.4c1,-1.5,2.4,-2.2,4.2,-2.2c0.5,0,1,0.1,1.5,0.3c0.4,0.2,0.9,0.4,1.3,0.7c0.3,0.3,0.7,0.7,1,1c0.3,0.4,0.5,0.8,0.7,1.1l0.1,0.3l0.3,-0.1l2.1,-1.3l0.2,-0.1L298.8,100c-0.6,-1.4,-1.6,-2.5,-2.9,-3.4c-1.3,-0.8,-2.8,-1.2,-4.5,-1.2c-1,0,-2.1,0.2,-3.2,0.6c-1,0.5,-2,1.2,-2.8,2.1c-0.8,0.9,-1.5,2.1,-2,3.5c-0.5,1.5,-0.7,3.2,-0.7,5.2c0,2,0.2,3.7,0.7,5.1c0.5,1.4,1.1,2.6,1.9,3.5Z" class="g1_1" />
<path d="M318.6,101.2l2.7,7.1l-5.2,0Zm-6.2,16.5l0.2,0l0.1,-0.2l2.3,-6.4l7.3,0l2.5,6.4l0.1,0.2l0.2,0l2.7,0l0.5,0l-0.2,-0.4L319.8,96l-0.1,-0.2l-0.2,0l-1.6,0l-0.2,0l0,0.2l-8.3,21.3l-0.1,0.4l0.4,0Z" class="g1_1" />
<path d="M343.1,117.7l0.3,0l0,-0.3l0,-9.4l6.8,0l0.3,0l0,-0.3l0,-2.2l0,-0.3l-0.3,0l-6.8,0l0,-6.6l9.3,0l0.2,0l0,-0.3l0,-2.2l0,-0.3l-0.2,0l-12.1,0l-0.3,0l0,0.3l0,21.3l0,0.3l0.3,0Z" class="g1_1" />
<path d="M378.7,117.7l0.2,0l0,-0.3l0,-2.2l0,-0.3l-0.2,0l-10.4,0l0,-7.3l6.8,0l0.3,0l0,-0.3l0,-2.1l0,-0.4l-0.3,0l-6.8,0l0,-6.2l9.6,0l0.3,0l0,-0.3l0,-2.2l0,-0.3l-0.3,0l-12.4,0l-0.3,0l0,0.3l0,21.3l0,0.3l0.3,0Z" class="g1_1" />
<path d="M391.6,116c0.6,0.5,1.2,0.9,1.8,1.2c0.7,0.3,1.4,0.5,2.2,0.7c0.7,0.1,1.4,0.2,2.1,0.2c1.1,0,2,-0.1,2.8,-0.3c0.9,-0.3,1.7,-0.7,2.3,-1.2c0.7,-0.5,1.2,-1.2,1.7,-2.1c0.3,-0.8,0.5,-1.8,0.5,-2.9c0,-0.9,-0.1,-1.8,-0.5,-2.5c-0.4,-0.7,-0.8,-1.3,-1.4,-1.8c-0.6,-0.5,-1.2,-0.9,-2,-1.3c-0.7,-0.4,-1.4,-0.7,-2.1,-1l-1.2,-0.5l-0.9,-0.4c-0.6,-0.3,-1.1,-0.6,-1.5,-0.9c-0.4,-0.3,-0.7,-0.6,-1,-1c-0.2,-0.3,-0.3,-0.7,-0.3,-1.2c0,-0.8,0.3,-1.5,0.9,-2c0.7,-0.5,1.6,-0.8,2.8,-0.8c1,0,1.9,0.3,2.7,0.7c0.8,0.5,1.5,1.1,2,1.8l0.2,0.2l0.2,-0.1l2,-1.6l0.2,-0.1l-0.2,-0.3c-0.8,-1.1,-1.8,-2,-3.1,-2.6c-1.3,-0.5,-2.6,-0.8,-4,-0.8c-0.9,0,-1.7,0.1,-2.6,0.4c-0.8,0.2,-1.5,0.5,-2.2,1c-0.7,0.5,-1.2,1.1,-1.6,1.8c-0.4,0.8,-0.6,1.6,-0.6,2.6c0,0.9,0.2,1.7,0.6,2.4c0.3,0.6,0.8,1.2,1.4,1.7c0.6,0.5,1.3,0.9,2,1.2c0.6,0.3,1.3,0.6,2.1,1c0.6,0.3,1.2,0.5,1.9,0.9c0.5,0.2,1.1,0.5,1.5,0.9c0.5,0.3,0.8,0.7,1.1,1.1c0.2,0.4,0.3,0.9,0.3,1.5c0,0.6,-0.1,1.1,-0.3,1.5c-0.2,0.4,-0.4,0.8,-0.8,1c-0.3,0.3,-0.7,0.5,-1.2,0.6c-0.4,0.1,-0.9,0.2,-1.5,0.2c-1,0,-2,-0.2,-2.9,-0.6c-1,-0.4,-1.8,-1.1,-2.3,-1.9l-0.2,-0.3l-0.2,0.2l-2.1,1.5l-0.2,0.2l0.2,0.2c0.4,0.6,0.8,1.1,1.4,1.5Z" class="g1_1" />
<path d="M369.8,93.1l0.2,0.1l0.2,-0.1l5.8,-4L376.3,89L376,88.7l-1.6,-1.6l-0.2,-0.2L374,87l-5.3,4.5l-0.3,0.2l0.3,0.2Z" class="g1_1" />
<path d="M293.8,169.4c9.1,-5.7,28.4,-3.7,19.7,6.1c-8.3,9.3,-26.1,16.1,-26.6,16.2C265.3,202,278.6,179,293.8,169.4m217.3,30.9c-14.2,5.7,-58,23,-66.6,0.2c-7.3,-19.5,15.6,-31.2,18.9,-33.2c1.1,-0.6,3.8,-1.8,3.7,-1.9c-0.9,-2.8,-7.2,-3.5,-11.2,-2.6c-19.6,4.8,-25.7,15,-29.5,20c13,-38.8,26.3,-63.7,36.4,-84.4c5.1,-10.6,10.4,-20.8,10.5,-20.8c-5.6,-1.7,-11.2,4.1,-13.7,6.6c-6.1,6.1,-30.1,28.1,-66.5,117.1c-0.8,1.9,-1.7,3.9,-2.6,5.8c-1,1.7,-2.7,4.5,-2.9,4.9c-8.8,2.6,-18.3,4.3,-29.1,2.2c-4.1,-0.8,-6.7,-5.3,-6.6,-11.8c0.8,-34.4,36.2,-39.5,42.5,-40.2c0.6,0,0.9,-0.5,-0.6,-1.6C382,151.9,362.4,155.2,346,166.2c-14.7,9.8,-20.8,24.2,-21.7,35.3C313.4,205.8,293.7,214,284.8,213c-9.6,-1.1,-6.7,-5,-5.8,-5.8c0.3,-0.2,0.6,-0.3,0.8,-0.5c5,-1.7,36,-13,43,-26.9c6.4,-12.8,-0.7,-21.3,-6.1,-23.5c-5.3,-2.2,-15.9,-4.9,-34.7,3.1c-16.6,7,-37.1,24.5,-34.8,44.7c-7.4,1.8,-13.7,2.6,-16.7,1.3C225.8,203.2,222.3,187.3,221,180c24.7,-9.3,40.7,-27.5,38.6,-50.4C257.7,110.2,230.8,78.9,178,91.7c-50.4,12.1,-58.6,54.2,-56.1,61.7c1.9,5.3,5.2,8.8,9.7,9.3c4.2,0.5,8.8,-2.9,7.1,-8c-1.6,-5.1,-5.4,-16.8,1.8,-28.7c6.6,-11,25.2,-27.4,57.5,-24.9c34.8,2.7,37.8,38.7,24,54.7c-9.4,10.8,-24.9,18,-43.2,19.6c11,-14.5,17.7,-25.2,20.8,-30.1c3.7,-6,11.7,-20.9,6.5,-26.5c0,0,-6.5,7.8,-12,14.3c-7.1,8.3,-55.2,64.6,-67.7,77.2c-12.8,12.8,-24.4,20.4,-38,15.6c-1.9,-0.6,-3.4,-1.3,-5.2,-2.1c0,0,-6.4,0.3,-7,6.7c-0.5,6.5,7,10.7,7,10.7c6.5,3.1,14.9,4.6,25.4,2.8c21.8,-3.7,49.9,-39.4,63.8,-56.5c0.2,-0.3,7.9,-0.1,17.4,-0.8c1.4,7.4,7.8,34.3,25.5,38.7c7.5,1.8,23.1,-2.3,37.8,-7.5c13.8,14.6,53.1,5.6,72.2,-6.1c1.4,4.2,3.9,7.7,7.6,10.1c9.9,6.6,35.6,3.4,52.6,-0.4c-2.3,4.4,-2,4.3,-2,4.3c0,0,8,-0.1,17.7,0c12.2,0.2,14.7,-6.6,16.9,-12.4c2.4,-6.1,3.7,-10,4,-10.9c16.1,45.6,89,14.9,89,14.9c0,0,6.4,-3.8,6.1,-10.8c-0.3,-7,-6.1,-6.3,-6.1,-6.3Z" class="g1_1" />

</svg>
