<?xml version="1.0" encoding="UTF-8" standalone="no"?>
<!-- Page 1 -->

<svg
   xmlns:dc="http://purl.org/dc/elements/1.1/"
   xmlns:cc="http://creativecommons.org/ns#"
   xmlns:rdf="http://www.w3.org/1999/02/22-rdf-syntax-ns#"
   xmlns:svg="http://www.w3.org/2000/svg"
   xmlns="http://www.w3.org/2000/svg"
   xmlns:sodipodi="http://sodipodi.sourceforge.net/DTD/sodipodi-0.dtd"
   xmlns:inkscape="http://www.inkscape.org/namespaces/inkscape"
   x="0"
   y="0"
   width="601.90002"
   height="505.70001"
   viewBox="0 0 601.90002 505.70001"
   version="1.1"
   id="svg3883"
   sodipodi:docname="rhproprete.svg"
   inkscape:version="0.92.2 5c3e80d, 2017-08-06">
  <metadata
     id="metadata3887">
    <rdf:RDF>
      <cc:Work
         rdf:about="">
        <dc:format>image/svg+xml</dc:format>
        <dc:type
           rdf:resource="http://purl.org/dc/dcmitype/StillImage" />
      </cc:Work>
    </rdf:RDF>
  </metadata>
  <sodipodi:namedview
     pagecolor="#ffffff"
     bordercolor="#666666"
     borderopacity="1"
     objecttolerance="10"
     gridtolerance="10"
     guidetolerance="10"
     inkscape:pageopacity="0"
     inkscape:pageshadow="2"
     inkscape:window-width="1920"
     inkscape:window-height="1025"
     id="namedview3885"
     showgrid="false"
     inkscape:zoom="0.36283417"
     inkscape:cx="291.43105"
     inkscape:cy="407.97767"
     inkscape:window-x="0"
     inkscape:window-y="27"
     inkscape:window-maximized="1"
     inkscape:current-layer="svg3883" />
  <defs
     id="defs3823">
    <style
       type="text/css"
       id="style3821"><![CDATA[

.g1_1{
fill: #169AD7;
}
.g2_1{
fill: #FFFFFF;
}
.g3_1{
fill: #231F20;
}


]]></style>
  </defs>
  <path
     d="M 601.9,505.7 H 0 V 0 h 601.9 z"
     class="g1_1"
     id="path3827"
     inkscape:connector-curvature="0"
     style="fill:#169ad7" />
  <path
     d="m 74.5,195.8 c 29.6,0 41.6,-14 41.6,-37.5 C 116.1,135 103.9,121 74.5,121 H 60.3 v 74.8 z m 68.3,59.4 H 114 L 86.5,216 c -3.4,0.4 -7.2,0.6 -11.1,0.6 H 60.3 v 78.6 H 36.1 V 99.5 h 39.3 c 42.3,0 65.6,23.3 65.6,58.8 0,23.7 -10.6,42.1 -30.8,51.3 z"
     class="g2_1"
     id="path3829"
     inkscape:connector-curvature="0"
     style="fill:#ffffff" />
  <path
     d="m 259.6,45 24.2,11.2 V 255 h -24.2 v -47 h -73.7 v 47 H 161.7 V 99.4 h 24.2 v 87.1 h 73.7 z"
     class="g2_1"
     id="path3831"
     inkscape:connector-curvature="0"
     style="fill:#ffffff" />
  <path
     d="m 381.1,473.8 h -97.4 v -4.5 h 97.4 z"
     class="g2_1"
     id="path3833"
     inkscape:connector-curvature="0"
     style="fill:#ffffff" />
  <path
     d="m 132,398.1 h 2.8 v 30.1 H 132 v -9.9 h -16.5 v 9.9 h -2.9 v -30.1 h 2.9 v 17.6 H 132 Z"
     class="g2_1"
     id="path3835"
     inkscape:connector-curvature="0"
     style="fill:#ffffff" />
  <path
     d="m 141.9,398.1 h 3.2 l 9.7,17.8 9.6,-17.8 h 3 l -11.2,20.7 v 9.4 h -2.9 v -9.4 z"
     class="g2_1"
     id="path3837"
     inkscape:connector-curvature="0"
     style="fill:#ffffff" />
  <path
     d="m 169.8,413.2 c 0,-8.9 6.8,-15.5 15.3,-15.5 5.3,0 8.8,1.9 11.3,4.7 l -2,2 c -2.1,-2.4 -4.8,-4 -9.4,-4 -7,0 -12.2,5.5 -12.2,12.8 0,7.3 5.3,12.8 12.7,12.8 4.5,0 7.2,-1.3 9.2,-2.9 v -4.8 h -9.1 v -2.6 h 11.8 v 8.7 c -2.7,2.4 -6.2,4.2 -11.9,4.2 -8.8,0 -15.7,-6.5 -15.7,-15.4 z"
     class="g2_1"
     id="path3839"
     inkscape:connector-curvature="0"
     style="fill:#ffffff" />
  <path
     d="m 205.9,398.1 h 3 v 30.1 h -3 z"
     class="g2_1"
     id="path3841"
     inkscape:connector-curvature="0"
     style="fill:#ffffff" />
  <path
     d="m 223.9,389.4 h 3.1 l 2.5,6.3 h -2.2 z m -5.2,8.7 h 18.2 v 2.6 h -15.3 v 15 h 13.7 v 2.6 h -13.7 v 7.4 h 15.9 v 2.5 h -18.8 z"
     class="g2_1"
     id="path3843"
     inkscape:connector-curvature="0"
     style="fill:#ffffff" />
  <path
     d="m 248.3,404.5 v 23.7 h -2.7 v -30.7 h 0.3 l 20.3,24.3 v -23.7 h 2.7 v 30.8 h -0.3 z"
     class="g2_1"
     id="path3845"
     inkscape:connector-curvature="0"
     style="fill:#ffffff" />
  <path
     d="m 278.6,398.1 h 18.2 v 2.6 h -15.3 v 15 h 13.6 v 2.6 h -13.6 v 7.4 h 15.9 v 2.5 h -18.8 z"
     class="g2_1"
     id="path3847"
     inkscape:connector-curvature="0"
     style="fill:#ffffff" />
  <path
     d="m 327.8,403.7 c 0,-2 -1.2,-3.5 -3.2,-3.5 -2.2,0 -3.6,1.5 -3.6,3.6 0,1.6 0.7,2.9 1.8,4.2 l 0.8,1 c 2.5,-1.5 4.2,-3 4.2,-5.3 m -5.1,8.6 c -3.8,2.1 -6.4,4 -6.4,7.9 0,3.6 2.9,5.9 6.8,5.9 3.3,0 5.8,-1.4 7.6,-4 z m 9.4,7.2 c 0.8,-2.1 1.2,-4.7 1.2,-7.7 h 2.7 c 0,4 -0.8,7.3 -2.1,9.9 l 5.3,6.5 h -3.5 l -3.3,-4 c -2.3,2.8 -5.5,4.4 -9.3,4.4 -5.7,0 -9.8,-3.3 -9.8,-8.4 0,-5 3.6,-7.4 7.8,-9.8 l -0.5,-0.7 c -1.7,-2.1 -2.4,-4 -2.4,-5.9 0,-3.4 2.5,-6.1 6.4,-6.1 3.7,0 6,2.6 6,6 0,3 -2.2,5.2 -5.5,7.2 z"
     class="g2_1"
     id="path3849"
     inkscape:connector-curvature="0"
     style="fill:#ffffff" />
  <path
     d="m 355.8,421.2 c 1.6,3.1 4.3,4.8 7.9,4.8 4.1,0 6.5,-2.1 6.5,-5.2 0,-3.3 -2,-4.8 -5.6,-6.5 l -2.5,-1.2 c -4.3,-2 -6.9,-4 -6.9,-8.2 0,-4.3 3.3,-7.2 7.7,-7.2 3.8,0 6.4,1.5 8.3,4.5 l -2.3,1.4 c -1.3,-2.3 -3.2,-3.3 -5.9,-3.3 -3,0 -5,1.9 -5,4.5 0,2.9 1.6,4 5.3,5.7 l 2.5,1.2 c 4.8,2.3 7.3,4.5 7.3,9 0,5 -3.8,7.9 -9.4,7.9 -4.9,0 -8.4,-2.4 -10.4,-6.1 z"
     class="g2_1"
     id="path3851"
     inkscape:connector-curvature="0"
     style="fill:#ffffff" />
  <path
     d="m 381.2,398.1 h 18.1 v 2.6 h -15.2 v 15 h 13.6 v 2.6 h -13.6 v 7.4 H 400 v 2.5 h -18.8 z"
     class="g2_1"
     id="path3853"
     inkscape:connector-curvature="0"
     style="fill:#ffffff" />
  <path
     d="m 414.4,418.2 c 6.9,0 9.7,-3.7 9.7,-8.8 0,-5 -2.8,-8.7 -9.7,-8.7 h -3.5 v 17.5 z m 12.2,10 h -3.5 l -6,-7.7 c -0.8,0.2 -1.6,0.2 -2.5,0.2 h -3.7 v 7.5 h -2.8 v -30.1 h 6.5 c 8.2,0 12.5,4.8 12.5,11.3 0,4.9 -2.4,8.8 -7.1,10.5 z"
     class="g2_1"
     id="path3855"
     inkscape:connector-curvature="0"
     style="fill:#ffffff" />
  <path
     d="m 431.9,398.1 h 3.1 l 9.8,24.2 9.7,-24.2 h 3 l -12.7,30.8 h -0.2 z"
     class="g2_1"
     id="path3857"
     inkscape:connector-curvature="0"
     style="fill:#ffffff" />
  <path
     d="m 464.9,398.1 h 2.9 v 30.1 h -2.9 z"
     class="g2_1"
     id="path3859"
     inkscape:connector-curvature="0"
     style="fill:#ffffff" />
  <path
     d="m 475.7,413.2 c 0,-9 6.7,-15.5 15.2,-15.5 5.1,0 9.1,2.1 11.9,5.7 l -2.3,1.6 c -2.2,-3 -5.4,-4.6 -9.6,-4.6 -7,0 -12.2,5.5 -12.2,12.8 0,7.4 5.3,12.8 12.4,12.8 4.3,0 7.8,-1.8 10.2,-5 l 2.3,1.6 c -3,3.9 -7.2,6 -12.6,6 -8.6,0 -15.4,-6.5 -15.3,-15.4 z"
     class="g2_1"
     id="path3861"
     inkscape:connector-curvature="0"
     style="fill:#ffffff" />
  <path
     d="m 511,398.1 h 18.2 v 2.6 h -15.3 v 15 h 13.7 v 2.6 h -13.7 v 7.4 h 15.9 v 2.5 H 511 Z"
     class="g2_1"
     id="path3863"
     inkscape:connector-curvature="0"
     style="fill:#ffffff" />
  <path
     d="m 538.2,421.2 c 1.6,3.1 4.4,4.8 7.9,4.8 4.1,0 6.6,-2.1 6.6,-5.2 0,-3.3 -2.1,-4.8 -5.7,-6.5 l -2.4,-1.2 c -4.4,-2 -7,-4 -7,-8.2 0,-4.3 3.3,-7.2 7.8,-7.2 3.7,0 6.3,1.5 8.2,4.5 l -2.2,1.4 c -1.4,-2.3 -3.2,-3.3 -6,-3.3 -3,0 -5,1.9 -5,4.5 0,2.9 1.7,4 5.4,5.7 l 2.4,1.2 c 4.8,2.3 7.4,4.5 7.4,9 0,5 -3.8,7.9 -9.4,7.9 -5,0 -8.5,-2.4 -10.4,-6.1 z"
     class="g2_1"
     id="path3865"
     inkscape:connector-curvature="0"
     style="fill:#ffffff" />
  <path
     d="m 131.4,322.3 c 0.5,-0.1 2.9,-0.1 4.9,-0.9 5.7,-2.2 6.1,-8.4 6.1,-10.2 0,-1.1 0,-3.7 -1.8,-6 -2.4,-3.2 -6,-3.6 -9.9,-4 h -10.9 v 21.1 z m -11.4,5.6 v 16.3 h 10.1 v 5.3 h -25.7 v -5.3 h 8.4 V 301 h -8.5 v -5.2 h 27.6 c 2.7,0.2 5,0.3 7.6,1 1.6,0.4 5.2,1.6 7.9,5.7 0.9,1.5 2.4,4.4 2.4,8.8 0,2.4 -0.6,10.7 -7.7,14.5 -2.3,1.2 -4.4,1.7 -9.5,2.1 z"
     class="g3_1"
     id="path3867"
     inkscape:connector-curvature="0"
     style="fill:#231f20" />
  <path
     d="m 173.7,301 v 19.8 h 9.5 c 4.2,-0.3 8.1,-0.7 11,-3.9 0.8,-1 2.2,-2.9 2.2,-6.1 0,-1 -0.2,-3 -1.4,-5.2 -2.2,-3.9 -6.2,-4.2 -10.5,-4.6 z m 30.2,43.1 h 6.4 v 5.4 h -12.2 l -5.6,-17.1 c -0.7,-1.9 -1.1,-2.7 -1.9,-3.5 -2,-2.1 -4.4,-2.4 -7.1,-2.7 h -9.7 v 17.9 h 7.8 v 5.3 h -23.5 v -5.3 h 8.4 V 300.9 H 158 v -5.2 h 27.1 c 5.1,0.2 10,0.3 14,3.5 1.5,1.2 2.3,2.5 2.7,3.1 0.7,1.2 2,4.1 2,8 0,2.3 -0.4,7.7 -5.7,11.2 -1.7,1.2 -3.7,1.9 -5.6,2.5 4.6,1.5 5.2,2.3 7.1,6.7 z"
     class="g3_1"
     id="path3869"
     inkscape:connector-curvature="0"
     style="fill:#231f20" />
  <path
     d="m 226.3,324.7 c 0.1,2.2 0.3,8.8 4.7,14.1 5,6 12.2,6.5 14.8,6.5 7.3,0 13.8,-3.5 16.9,-10.2 1.1,-2.2 1.7,-4.5 2.2,-6.9 0.5,-4.7 0.5,-5.7 0.2,-10.5 -0.1,-0.8 -0.6,-4.2 -1.7,-6.9 -3.1,-7.2 -9.8,-11.1 -17.6,-11.1 -1.3,0 -4.2,0 -7.4,1.3 -7.6,2.8 -10.1,9.5 -10.9,12 -1,3.3 -1,5.6 -1.2,9 z M 219.4,314 c 0.3,-1 0.6,-1.9 0.9,-2.9 0.7,-1.9 2.2,-6.2 6.2,-10 6.8,-6.3 16,-6.7 19,-6.7 3,0 11.2,0.3 18.3,5.9 4.1,3.3 9.4,9.4 9.4,21.9 0,10.6 -3.5,16.5 -6.4,19.9 -2.9,3.4 -9.2,8.8 -20.7,8.8 -3.1,0 -12.7,-0.3 -19.8,-6.9 -2.3,-2.2 -3.6,-4.3 -4.3,-5.4 -1.3,-2.4 -2.1,-4.4 -3.2,-9.5 -0.5,-4 -0.4,-5.1 -0.4,-7.3 0.2,-3.6 0.3,-4.3 1,-7.8 z"
     class="g3_1"
     id="path3871"
     inkscape:connector-curvature="0"
     style="fill:#231f20" />
  <path
     d="m 310,322.3 c 0.6,-0.1 3,-0.1 5,-0.9 5.6,-2.2 6.1,-8.4 6.1,-10.2 0,-1.1 0,-3.7 -1.8,-6 -2.4,-3.2 -6,-3.6 -9.9,-4 h -10.9 v 21.1 z m -11.4,5.6 v 16.3 h 10.1 v 5.3 h -25.6 v -5.3 h 8.4 V 301 H 283 v -5.2 h 27.6 c 2.7,0.2 5,0.3 7.5,1 1.7,0.4 5.3,1.6 8,5.7 0.9,1.5 2.3,4.4 2.3,8.8 0,2.4 -0.5,10.7 -7.6,14.5 -2.3,1.2 -4.4,1.7 -9.5,2.1 z"
     class="g3_1"
     id="path3873"
     inkscape:connector-curvature="0"
     style="fill:#231f20" />
  <path
     d="m 351.9,301 v 19.8 h 9.5 c 4.2,-0.3 8.1,-0.7 11,-3.9 0.8,-1 2.2,-2.9 2.2,-6.1 0,-1 -0.2,-3 -1.4,-5.2 -2.2,-3.9 -6.2,-4.2 -10.5,-4.6 z m 30.2,43.1 h 6.4 v 5.4 h -12.2 l -5.5,-17.1 c -0.8,-1.9 -1.2,-2.7 -2,-3.5 -1.9,-2.1 -4.4,-2.4 -7.1,-2.7 H 352 v 17.9 h 7.8 v 5.3 h -23.5 v -5.3 h 8.4 v -43.2 h -8.5 v -5.2 h 27.1 c 5.1,0.2 10.1,0.3 14,3.5 1.5,1.2 2.3,2.5 2.7,3.1 0.7,1.2 2,4.1 2,8 0,2.3 -0.4,7.7 -5.7,11.2 -1.7,1.2 -3.7,1.9 -5.6,2.5 4.6,1.5 5.2,2.3 7.1,6.7 z"
     class="g3_1"
     id="path3875"
     inkscape:connector-curvature="0"
     style="fill:#231f20" />
  <path
     d="m 444.9,311.8 h -6.3 v -10.6 h -25.2 v 18.3 h 12.3 v -7.9 h 6 v 21.2 h -6 v -7.9 h -12.3 v 18.9 h 25.5 v -11 h 6.3 v 16.7 h -47.4 v -5.4 h 8.3 v -43.2 h -8.3 v -5.3 h 47.1 z"
     class="g3_1"
     id="path3877"
     inkscape:connector-curvature="0"
     style="fill:#231f20" />
  <path
     d="m 502.4,295.7 v 17.4 h -6.6 v -11.5 h -14 v 42.5 h 9.2 v 5.4 h -25.6 v -5.3 h 9.2 v -42.6 h -14.1 v 11.6 h -6.6 v -17.5 z"
     class="g3_1"
     id="path3879"
     inkscape:connector-curvature="0"
     style="fill:#231f20" />
  <path
     d="m 546.8,280.6 c -1,0.9 -2.1,1.8 -3.2,2.8 -1.3,1.3 -2.5,2.7 -3.8,4 -1.4,1.4 -2.8,2.9 -4.3,4.3 h -5.9 l 7.1,-11.2 z m 9.1,31.2 h -6.2 v -10.6 h -25.3 v 18.3 h 12.3 v -7.9 h 6.1 v 21.2 h -6.1 v -7.9 h -12.3 v 18.9 H 550 v -11 h 6.3 v 16.7 h -47.4 v -5.4 h 8.3 v -43.2 h -8.3 v -5.3 h 47 z"
     class="g3_1"
     id="path3881"
     inkscape:connector-curvature="0"
     style="fill:#231f20" />
</svg>
