<svg xmlns="http://www.w3.org/2000/svg" xmlns:xlink="http://www.w3.org/1999/xlink" version="1.1" x="0px" y="0px" viewBox="0 0 100 125" enable-background="new 0 0 100 100" xml:space="preserve"><g><path d="M49.7,62.8c-6.5,0-10.3,2.5-12.4,4.4c3.9,0.5,8,0.8,12.4,0.8c4.3,0,8.5-0.3,12.4-0.8C60,65.2,56.1,62.8,49.7,62.8z"/><path d="M21.3,58.6C21.2,58.7,21,58.8,21,59c0,0.2,0,0.4,0.1,0.6l6.6,10.7l1.9,1.8c0.2,0.2,0.4,0.3,0.7,0.3c0.3,0,0.5-0.1,0.7-0.3   l0.9-1c0.2-0.2,0.3-0.4,0.2-0.7c0-0.3-0.1-0.5-0.4-0.7l-1.8-1.5l-7.5-9.5C22.1,58.4,21.6,58.4,21.3,58.6z"/><path d="M77.4,39.4c0.9-0.8,0.6-2.2-0.5-2.7c-0.6-0.3-1.3-0.1-1.8,0.3l-2.9,2.9l3.5,1.2L77.4,39.4z"/><path d="M95,21.7c-0.1-1.6-1-3.7-4.4-3.4c-0.9,0.1-1.7,0.5-2.3,1.1L77.6,30.4c0,0,6,0.3,6,6l10.5-12C94.7,23.6,95.1,22.6,95,21.7z"/><path d="M75,35.5c0,0,1.4-1.3,3.6,0.4c0,0,1.2,0.8,0.6,2.4l-0.8,1.3c0,0,2-0.1,3.2-1.1c0.5-0.4,0.8-1,0.8-1.7   c0.1-1-0.2-2.5-2.1-3.9c-0.9-0.6-1.7-0.9-2.3-1c-1.3-0.2-2.6,0.6-3.2,1.8c-0.4,0.8-0.8,2-0.7,2.7L75,35.5z"/><path d="M16.2,55.6c0.6-1.2,1.7-2,2.9-2.5l-10-4.8C8.7,48.1,8.3,48,7.9,48c-1,0-2,0.6-2.5,1.5c-0.7,1.3-0.3,3,1,3.8l9.4,6   C15.4,58,15.6,56.7,16.2,55.6z"/><path d="M49.7,38.5c-16.9,0-31.3,4.2-36.3,10.1l9.4,4.5l0,0c0.3,0.1,0.6,0.2,0.9,0.4c1.3,0.7,2.2,1.9,2.6,3.2   c0.4,1.3,0.2,2.7-0.3,3.9l4.2,5.3c1.6,0.4,3.3,0.7,5,1c2-2.3,6.5-5.9,14.6-5.9s12.7,3.7,14.6,5.9c13.8-2.2,23.5-7.5,23.5-13.6   C87.8,45.1,70.7,38.5,49.7,38.5z M71.6,47.5c-0.6,0-1.2-0.5-1.2-1.2c0-0.6,0.5-1.2,1.2-1.2c0.6,0,1.2,0.5,1.2,1.2   C72.7,47,72.2,47.5,71.6,47.5z"/><path d="M49.7,70.5c-6.4,0-11.8-0.5-16.3-1.2c0.2,0.3,0.3,0.6,0.3,1c0.1,0.7-0.2,1.4-0.7,1.9l-0.9,1c-0.5,0.5-1.2,0.8-1.9,0.8   c0,0,0,0,0,0c-0.7,0-1.3-0.2-1.7-0.7l-2-1.9l-2.8-4.5c-9.5-3.4-12.2-7.8-12.2-7.8s2.7,11.7,19,18.8c12.2,5.3,26.2,5.3,38.4,0   c16.4-7,19-18.8,19-18.8S81,70.5,49.7,70.5z"/><path d="M22.8,54.9c-0.6-0.3-1.2-0.5-1.9-0.5c-1.3,0-2.6,0.7-3.3,2c-1,1.8-0.4,4.2,1.5,5.2c0.5,0.3,1,0.4,1.6,0.5l-1-1.5   c-0.3-0.5-0.4-1.2-0.3-1.8c0.1-0.6,0.5-1.1,1.1-1.5c0.4-0.2,0.8-0.4,1.2-0.4c0.7,0,1.4,0.3,1.9,0.9l1.1,1.4   C25.1,57.5,24.4,55.7,22.8,54.9z"/></g></svg>
